<svg width="80" height="80" viewBox="0 0 80 80" fill="none" xmlns="http://www.w3.org/2000/svg">
<g clip-path="url(#clip0_4444_206)">
<path d="M79.7532 70.7933C79.4465 70.3 78.9099 70 78.3332 70H1.66661C1.08989 70 0.553326 70.3 0.249889 70.79C-0.0533923 71.28 -0.0833923 71.8933 0.176608 72.41C2.51661 77.0933 7.22317 80 12.4532 80H67.5432C72.7732 80 77.4765 77.0933 79.8232 72.4133C80.0799 71.8967 80.0532 71.2833 79.7532 70.7933Z" fill="black"/>
<path d="M79.7532 70.7933C79.4465 70.3 78.9099 70 78.3332 70H1.66661C1.08989 70 0.553326 70.3 0.249889 70.79C-0.0533923 71.28 -0.0833923 71.8933 0.176608 72.41C2.51661 77.0933 7.22317 80 12.4532 80H67.5432C72.7732 80 77.4765 77.0933 79.8232 72.4133C80.0799 71.8967 80.0532 71.2833 79.7532 70.7933Z" fill="url(#paint0_linear_4444_206)"/>
<path d="M66.3799 53.0034C66.2799 52.8701 66.1566 52.7534 66.0199 52.6566L65.0466 51.9766C64.1199 52.8366 62.9366 53.3334 61.6666 53.3334C60.1499 53.3334 58.7299 52.6566 57.7733 51.4701C56.6466 50.0634 53.8233 46.4601 50.7533 41.9668L50.4733 41.7701C50.3333 41.6734 50.18 41.5968 50.0166 41.5468C48.2299 40.9835 46.4099 40.5868 44.5733 40.3301C44.8433 39.7168 44.9966 39.0434 44.9966 38.3301C44.9966 35.5734 42.7533 33.3301 39.9966 33.3301C37.2399 33.3301 34.9966 35.5734 34.9966 38.3301C34.9966 39.0468 35.1533 39.7234 35.4266 40.3401C21.4333 42.2668 10.1666 52.8534 7.36987 66.6668H72.6599C71.6499 61.7334 69.5232 57.0768 66.3799 53.0034ZM38.4432 49.9968C29.1164 50.6135 21.0864 56.7001 17.9932 65.5035C17.7532 66.1868 17.1064 66.6168 16.4199 66.6168C16.2366 66.6168 16.0499 66.5868 15.8666 66.5235C14.9999 66.2168 14.5433 65.2668 14.8466 64.3968C18.3866 54.3335 27.5599 47.3768 38.2199 46.6701C39.1432 46.5734 39.9332 47.3034 39.9932 48.2234C40.0566 49.1401 39.3632 49.9334 38.4432 49.9968ZM39.9999 40.0001C39.0799 40.0001 38.3332 39.2534 38.3332 38.3334C38.3332 37.4134 39.0799 36.6666 39.9999 36.6666C40.9199 36.6666 41.6666 37.4134 41.6666 38.3334C41.6666 39.2534 40.9199 40.0001 39.9999 40.0001Z" fill="black"/>
<path d="M66.3799 53.0034C66.2799 52.8701 66.1566 52.7534 66.0199 52.6566L65.0466 51.9766C64.1199 52.8366 62.9366 53.3334 61.6666 53.3334C60.1499 53.3334 58.7299 52.6566 57.7733 51.4701C56.6466 50.0634 53.8233 46.4601 50.7533 41.9668L50.4733 41.7701C50.3333 41.6734 50.18 41.5968 50.0166 41.5468C48.2299 40.9835 46.4099 40.5868 44.5733 40.3301C44.8433 39.7168 44.9966 39.0434 44.9966 38.3301C44.9966 35.5734 42.7533 33.3301 39.9966 33.3301C37.2399 33.3301 34.9966 35.5734 34.9966 38.3301C34.9966 39.0468 35.1533 39.7234 35.4266 40.3401C21.4333 42.2668 10.1666 52.8534 7.36987 66.6668H72.6599C71.6499 61.7334 69.5232 57.0768 66.3799 53.0034ZM38.4432 49.9968C29.1164 50.6135 21.0864 56.7001 17.9932 65.5035C17.7532 66.1868 17.1064 66.6168 16.4199 66.6168C16.2366 66.6168 16.0499 66.5868 15.8666 66.5235C14.9999 66.2168 14.5433 65.2668 14.8466 64.3968C18.3866 54.3335 27.5599 47.3768 38.2199 46.6701C39.1432 46.5734 39.9332 47.3034 39.9932 48.2234C40.0566 49.1401 39.3632 49.9334 38.4432 49.9968ZM39.9999 40.0001C39.0799 40.0001 38.3332 39.2534 38.3332 38.3334C38.3332 37.4134 39.0799 36.6666 39.9999 36.6666C40.9199 36.6666 41.6666 37.4134 41.6666 38.3334C41.6666 39.2534 40.9199 40.0001 39.9999 40.0001Z" fill="url(#paint1_linear_4444_206)"/>
<path d="M61.6665 0C51.5598 0 43.3333 8.22328 43.3333 18.3333C43.3333 28.01 59.67 48.51 60.3633 49.3733C60.6833 49.77 61.1632 50 61.6665 50C62.1698 50 62.6498 49.77 62.9698 49.3733C63.6631 48.51 79.9998 28.01 79.9998 18.3333C79.9998 8.22328 71.7731 0 61.6665 0ZM61.6665 26.6667C57.0698 26.6667 53.3333 22.9267 53.3333 18.3334C53.3333 13.7402 57.07 10.0002 61.6665 10.0002C66.2631 10.0002 69.9998 13.7402 69.9998 18.3334C69.9998 22.9267 66.2631 26.6667 61.6665 26.6667Z" fill="black"/>
<path d="M61.6665 0C51.5598 0 43.3333 8.22328 43.3333 18.3333C43.3333 28.01 59.67 48.51 60.3633 49.3733C60.6833 49.77 61.1632 50 61.6665 50C62.1698 50 62.6498 49.77 62.9698 49.3733C63.6631 48.51 79.9998 28.01 79.9998 18.3333C79.9998 8.22328 71.7731 0 61.6665 0ZM61.6665 26.6667C57.0698 26.6667 53.3333 22.9267 53.3333 18.3334C53.3333 13.7402 57.07 10.0002 61.6665 10.0002C66.2631 10.0002 69.9998 13.7402 69.9998 18.3334C69.9998 22.9267 66.2631 26.6667 61.6665 26.6667Z" fill="url(#paint2_linear_4444_206)"/>
</g>
<defs>
<linearGradient id="paint0_linear_4444_206" x1="39.9994" y1="70" x2="39.9994" y2="80" gradientUnits="userSpaceOnUse">
<stop stop-color="#1071FF"/>
<stop offset="1" stop-color="#010C19"/>
</linearGradient>
<linearGradient id="paint1_linear_4444_206" x1="40.0149" y1="33.3301" x2="40.0149" y2="66.6668" gradientUnits="userSpaceOnUse">
<stop stop-color="#1071FF"/>
<stop offset="1" stop-color="#010C19"/>
</linearGradient>
<linearGradient id="paint2_linear_4444_206" x1="61.6665" y1="0" x2="61.6665" y2="50" gradientUnits="userSpaceOnUse">
<stop stop-color="#1071FF"/>
<stop offset="1" stop-color="#010C19"/>
</linearGradient>
<clipPath id="clip0_4444_206">
<rect width="80" height="80" fill="white"/>
</clipPath>
</defs>
</svg>
