<svg width="70" height="70" viewBox="0 0 70 70" fill="none" xmlns="http://www.w3.org/2000/svg">
<g clip-path="url(#clip0_4444_194)">
<path d="M42.9236 30.3658C41.73 29.1724 39.7879 29.1724 38.5944 30.3658L36.177 32.7833C35.376 33.5842 34.0773 33.5845 33.2764 32.7833L30.8589 30.3658C30.2806 29.7875 29.512 29.4692 28.6944 29.4692C27.8768 29.4692 27.108 29.7875 26.53 30.3658C25.9516 30.9442 25.6334 31.7128 25.6334 32.5304C25.6334 33.348 25.9518 34.1169 26.53 34.6949L32.5292 40.6942C32.5404 40.7054 32.5526 40.7145 32.5639 40.7255L32.5954 40.694C33.1837 41.2823 33.9537 41.5792 34.7264 41.5876C35.4993 41.5794 36.2698 41.2826 36.8582 40.694C36.9634 40.5888 37.0776 40.4982 37.1978 40.4206L42.9234 34.6951C43.5018 34.1167 43.82 33.3481 43.82 32.5305C43.8202 31.7128 43.5018 30.944 42.9236 30.3658Z" fill="#1071FF"/>
<path d="M42.9236 30.3658C41.73 29.1724 39.7879 29.1724 38.5944 30.3658L36.177 32.7833C35.376 33.5842 34.0773 33.5845 33.2764 32.7833L30.8589 30.3658C30.2806 29.7875 29.512 29.4692 28.6944 29.4692C27.8768 29.4692 27.108 29.7875 26.53 30.3658C25.9516 30.9442 25.6334 31.7128 25.6334 32.5304C25.6334 33.348 25.9518 34.1169 26.53 34.6949L32.5292 40.6942C32.5404 40.7054 32.5526 40.7145 32.5639 40.7255L32.5954 40.694C33.1837 41.2823 33.9537 41.5792 34.7264 41.5876C35.4993 41.5794 36.2698 41.2826 36.8582 40.694C36.9634 40.5888 37.0776 40.4982 37.1978 40.4206L42.9234 34.6951C43.5018 34.1167 43.82 33.3481 43.82 32.5305C43.8202 31.7128 43.5018 30.944 42.9236 30.3658Z" fill="url(#paint0_linear_4444_194)"/>
<path d="M62.4809 18.4798H51.2469V7.51929C51.2469 3.37328 47.8736 0 43.7275 0H25.7256C21.5795 0 18.2064 3.37328 18.2064 7.51929V18.4798H7.51929C3.37314 18.4798 0 21.8531 0 25.9991V44.0008C0 48.1469 3.37314 51.5201 7.51929 51.5201H18.2064V62.4807C18.2064 66.6269 21.5795 70 25.7256 70H43.7275C47.8735 70 51.2468 66.6267 51.2468 62.4807V51.5202H62.4807C66.6269 51.5202 70 48.1469 70 44.0009V25.9991C70.0003 21.8531 66.627 18.4798 62.4809 18.4798ZM45.8242 37.5956L39.825 43.5947C38.4284 44.9913 36.5941 45.6893 34.7598 45.6893C34.7487 45.6893 34.7378 45.6886 34.7267 45.6884C34.7156 45.6884 34.7047 45.6893 34.6936 45.6893C32.8592 45.6893 31.025 44.9912 29.6286 43.5947L23.6293 37.5956C22.2764 36.2426 21.5312 34.4438 21.5312 32.5303C21.5312 30.6168 22.2764 28.8181 23.6293 27.465C24.9823 26.112 26.781 25.3669 28.6945 25.3669C30.6079 25.3669 32.4067 26.112 33.7597 27.465L34.7267 28.4321L35.6937 27.4651C37.0467 26.1122 38.8455 25.367 40.759 25.367C42.6724 25.367 44.4712 26.1122 45.8242 27.4651C47.1772 28.8181 47.9223 30.6169 47.9223 32.5304C47.9223 34.444 47.177 36.2426 45.8242 37.5956Z" fill="url(#paint1_linear_4444_194)"/>
</g>
<defs>
<linearGradient id="paint0_linear_4444_194" x1="34.7267" y1="29.4692" x2="34.7267" y2="41.5876" gradientUnits="userSpaceOnUse">
<stop stop-color="#1071FF"/>
<stop offset="1" stop-color="#010C19"/>
</linearGradient>
<linearGradient id="paint1_linear_4444_194" x1="35" y1="0" x2="35" y2="70" gradientUnits="userSpaceOnUse">
<stop stop-color="#1071FF"/>
<stop offset="1" stop-color="#010C19"/>
</linearGradient>
<clipPath id="clip0_4444_194">
<rect width="70" height="70" fill="white"/>
</clipPath>
</defs>
</svg>
