<svg width="95" height="95" viewBox="0 0 95 95" fill="none" xmlns="http://www.w3.org/2000/svg">
<path d="M60.0001 5.99995V14.1499L22.0801 9.19995V1.73995C22.0795 1.5639 22.1166 1.38978 22.1891 1.22934C22.2616 1.06889 22.3676 0.925876 22.5001 0.809945C22.627 0.693689 22.7778 0.606596 22.9419 0.554773C23.106 0.502949 23.2794 0.487649 23.4501 0.509945L58.9201 4.75995C59.2223 4.79477 59.5006 4.94125 59.7004 5.17065C59.9002 5.40005 60.0071 5.69582 60.0001 5.99995Z" fill="black"/>
<path d="M60.0001 5.99995V14.1499L22.0801 9.19995V1.73995C22.0795 1.5639 22.1166 1.38978 22.1891 1.22934C22.2616 1.06889 22.3676 0.925876 22.5001 0.809945C22.627 0.693689 22.7778 0.606596 22.9419 0.554773C23.106 0.502949 23.2794 0.487649 23.4501 0.509945L58.9201 4.75995C59.2223 4.79477 59.5006 4.94125 59.7004 5.17065C59.9002 5.40005 60.0071 5.69582 60.0001 5.99995Z" fill="url(#paint0_linear_4328_468)"/>
<path d="M49.2201 65.19V81.19H32.8601V65.19C32.8601 65.0697 32.9072 64.9542 32.9913 64.8682C33.0754 64.7822 33.1899 64.7326 33.3101 64.73H48.7801C48.8392 64.7313 48.8975 64.7442 48.9516 64.768C49.0057 64.7919 49.0545 64.8261 49.0954 64.8688C49.1363 64.9115 49.1683 64.9619 49.1897 65.017C49.2111 65.0721 49.2214 65.1309 49.2201 65.19Z" fill="black"/>
<path d="M49.2201 65.19V81.19H32.8601V65.19C32.8601 65.0697 32.9072 64.9542 32.9913 64.8682C33.0754 64.7822 33.1899 64.7326 33.3101 64.73H48.7801C48.8392 64.7313 48.8975 64.7442 48.9516 64.768C49.0057 64.7919 49.0545 64.8261 49.0954 64.8688C49.1363 64.9115 49.1683 64.9619 49.1897 65.017C49.2111 65.0721 49.2214 65.1309 49.2201 65.19Z" fill="url(#paint1_linear_4328_468)"/>
<path d="M65.4101 16.85L21.5901 11.15C21.4357 11.2416 21.2596 11.29 21.0801 11.29C20.9461 11.2908 20.8133 11.2647 20.6896 11.2131C20.5659 11.1616 20.4539 11.0857 20.3601 10.99L16.7701 10.52C16.7165 10.5122 16.6619 10.5162 16.6101 10.5317C16.5583 10.5473 16.5105 10.574 16.4701 10.61C16.4275 10.6472 16.3937 10.6934 16.3712 10.7453C16.3487 10.7972 16.3381 10.8535 16.3401 10.91V81.14H30.8601V65.14C30.8601 64.4893 31.1179 63.8651 31.5771 63.4041C32.0362 62.943 32.6594 62.6827 33.3101 62.68H48.7801C49.1018 62.6813 49.4202 62.746 49.7169 62.8703C50.0136 62.9947 50.283 63.1762 50.5096 63.4047C50.7361 63.6331 50.9155 63.9039 51.0374 64.2017C51.1593 64.4994 51.2214 64.8183 51.2201 65.14V81.14H57.0001C57.027 78.2734 57.8624 75.4726 59.4103 73.0596C60.9582 70.6467 63.1557 68.7196 65.7501 67.5V17.24C65.7488 17.1453 65.7139 17.0541 65.6516 16.9827C65.5894 16.9112 65.5038 16.8642 65.4101 16.85ZM32.5101 55.66C32.5101 56.37 32.2294 57.0512 31.7293 57.5551C31.2291 58.059 30.55 58.3447 29.8401 58.35H25.1401C24.4301 58.3447 23.751 58.059 23.2509 57.5551C22.7507 57.0512 22.4701 56.37 22.4701 55.66V51.66C22.4779 50.9553 22.7621 50.2817 23.2614 49.7843C23.7607 49.2868 24.4353 49.0052 25.1401 49H29.8401C30.55 49.0053 31.2291 49.291 31.7293 49.7949C32.2294 50.2988 32.5101 50.98 32.5101 51.69V55.66ZM32.5101 42.38C32.5101 43.09 32.2294 43.7712 31.7293 44.2751C31.2291 44.779 30.55 45.0647 29.8401 45.07H25.1401C24.4301 45.0647 23.751 44.779 23.2509 44.2751C22.7507 43.7712 22.4701 43.09 22.4701 42.38V38.38C22.4701 37.67 22.7507 36.9888 23.2509 36.4849C23.751 35.981 24.4301 35.6953 25.1401 35.69H29.8401C30.55 35.6953 31.2291 35.981 31.7293 36.4849C32.2294 36.9888 32.5101 37.67 32.5101 38.38V42.38ZM32.5101 29.1C32.5101 29.81 32.2294 30.4912 31.7293 30.9951C31.2291 31.499 30.55 31.7847 29.8401 31.79H25.1401C24.4301 31.7847 23.751 31.499 23.2509 30.9951C22.7507 30.4912 22.4701 29.81 22.4701 29.1V25.1C22.4701 24.39 22.7507 23.7088 23.2509 23.2049C23.751 22.701 24.4301 22.4153 25.1401 22.41H29.8401C30.55 22.4153 31.2291 22.701 31.7293 23.2049C32.2294 23.7088 32.5101 24.39 32.5101 25.1V29.1ZM46.0701 55.66C46.0675 56.3709 45.7846 57.0521 45.2828 57.5557C44.7811 58.0593 44.101 58.3448 43.3901 58.35H38.7001C38.346 58.3513 37.9951 58.2827 37.6676 58.1481C37.3401 58.0135 37.0424 57.8156 36.7915 57.5657C36.5407 57.3158 36.3416 57.0188 36.2058 56.6918C36.07 56.3647 36.0001 56.0141 36.0001 55.66V51.66C36.008 50.9501 36.2963 50.272 36.8021 49.7738C37.3078 49.2755 37.9901 48.9973 38.7001 49H43.3901C44.101 49.0053 44.7811 49.2907 45.2828 49.7943C45.7846 50.2979 46.0675 50.9791 46.0701 51.69V55.66ZM46.0701 42.38C46.0675 43.0909 45.7846 43.7721 45.2828 44.2757C44.7811 44.7794 44.101 45.0648 43.3901 45.07H38.7001C38.346 45.0713 37.9951 45.0027 37.6676 44.8681C37.3401 44.7335 37.0424 44.5356 36.7915 44.2857C36.5407 44.0358 36.3416 43.7388 36.2058 43.4118C36.07 43.0847 36.0001 42.7341 36.0001 42.38V38.38C36.0001 37.6683 36.2821 36.9856 36.7844 36.4814C37.2867 35.9773 37.9684 35.6927 38.6801 35.69H43.3701C44.081 35.6953 44.7611 35.9807 45.2628 36.4843C45.7646 36.9879 46.0475 37.6691 46.0501 38.38L46.0701 42.38ZM46.0701 29.1C46.0675 29.8109 45.7846 30.4921 45.2828 30.9957C44.7811 31.4993 44.101 31.7848 43.3901 31.79H38.7001C38.346 31.7913 37.9951 31.7227 37.6676 31.5881C37.3401 31.4535 37.0424 31.2556 36.7915 31.0057C36.5407 30.7558 36.3416 30.4588 36.2058 30.1318C36.07 29.8047 36.0001 29.4541 36.0001 29.1V25.1C35.9988 24.7451 36.0677 24.3934 36.2029 24.0652C36.3381 23.737 36.537 23.4389 36.788 23.1879C37.0389 22.9369 37.3371 22.7381 37.6653 22.6029C37.9935 22.4676 38.3451 22.3987 38.7001 22.4H43.3901C44.101 22.4053 44.7811 22.6907 45.2828 23.1943C45.7846 23.6979 46.0675 24.3791 46.0701 25.09V29.1ZM59.6201 55.66C59.6201 56.3717 59.3381 57.0544 58.8357 57.5586C58.3334 58.0628 57.6518 58.3474 56.9401 58.35H52.2501C51.5384 58.3474 50.8567 58.0628 50.3544 57.5586C49.8521 57.0544 49.5701 56.3717 49.5701 55.66V51.66C49.578 50.9535 49.8635 50.2785 50.3649 49.7808C50.8664 49.2831 51.5436 49.0026 52.2501 49H56.9401C57.6518 49.0027 58.3334 49.2873 58.8357 49.7914C59.3381 50.2956 59.6201 50.9783 59.6201 51.69V55.66ZM59.6201 42.38C59.6201 43.0917 59.3381 43.7744 58.8357 44.2786C58.3334 44.7828 57.6518 45.0674 56.9401 45.07H52.2501C51.5384 45.0674 50.8567 44.7828 50.3544 44.2786C49.8521 43.7744 49.5701 43.0917 49.5701 42.38V38.38C49.5701 37.6683 49.8521 36.9856 50.3544 36.4814C50.8567 35.9773 51.5384 35.6927 52.2501 35.69H56.9401C57.6518 35.6927 58.3334 35.9773 58.8357 36.4814C59.3381 36.9856 59.6201 37.6683 59.6201 38.38V42.38ZM59.6201 29.1C59.6201 29.8117 59.3381 30.4944 58.8357 30.9986C58.3334 31.5028 57.6518 31.7874 56.9401 31.79H52.2501C51.5384 31.7874 50.8567 31.5028 50.3544 30.9986C49.8521 30.4944 49.5701 29.8117 49.5701 29.1V25.1C49.5701 24.3883 49.8521 23.7056 50.3544 23.2014C50.8567 22.6973 51.5384 22.4127 52.2501 22.41H56.9401C57.6518 22.4127 58.3334 22.6973 58.8357 23.2014C59.3381 23.7056 59.6201 24.3883 59.6201 25.1V29.1Z" fill="black"/>
<path d="M65.4101 16.85L21.5901 11.15C21.4357 11.2416 21.2596 11.29 21.0801 11.29C20.9461 11.2908 20.8133 11.2647 20.6896 11.2131C20.5659 11.1616 20.4539 11.0857 20.3601 10.99L16.7701 10.52C16.7165 10.5122 16.6619 10.5162 16.6101 10.5317C16.5583 10.5473 16.5105 10.574 16.4701 10.61C16.4275 10.6472 16.3937 10.6934 16.3712 10.7453C16.3487 10.7972 16.3381 10.8535 16.3401 10.91V81.14H30.8601V65.14C30.8601 64.4893 31.1179 63.8651 31.5771 63.4041C32.0362 62.943 32.6594 62.6827 33.3101 62.68H48.7801C49.1018 62.6813 49.4202 62.746 49.7169 62.8703C50.0136 62.9947 50.283 63.1762 50.5096 63.4047C50.7361 63.6331 50.9155 63.9039 51.0374 64.2017C51.1593 64.4994 51.2214 64.8183 51.2201 65.14V81.14H57.0001C57.027 78.2734 57.8624 75.4726 59.4103 73.0596C60.9582 70.6467 63.1557 68.7196 65.7501 67.5V17.24C65.7488 17.1453 65.7139 17.0541 65.6516 16.9827C65.5894 16.9112 65.5038 16.8642 65.4101 16.85ZM32.5101 55.66C32.5101 56.37 32.2294 57.0512 31.7293 57.5551C31.2291 58.059 30.55 58.3447 29.8401 58.35H25.1401C24.4301 58.3447 23.751 58.059 23.2509 57.5551C22.7507 57.0512 22.4701 56.37 22.4701 55.66V51.66C22.4779 50.9553 22.7621 50.2817 23.2614 49.7843C23.7607 49.2868 24.4353 49.0052 25.1401 49H29.8401C30.55 49.0053 31.2291 49.291 31.7293 49.7949C32.2294 50.2988 32.5101 50.98 32.5101 51.69V55.66ZM32.5101 42.38C32.5101 43.09 32.2294 43.7712 31.7293 44.2751C31.2291 44.779 30.55 45.0647 29.8401 45.07H25.1401C24.4301 45.0647 23.751 44.779 23.2509 44.2751C22.7507 43.7712 22.4701 43.09 22.4701 42.38V38.38C22.4701 37.67 22.7507 36.9888 23.2509 36.4849C23.751 35.981 24.4301 35.6953 25.1401 35.69H29.8401C30.55 35.6953 31.2291 35.981 31.7293 36.4849C32.2294 36.9888 32.5101 37.67 32.5101 38.38V42.38ZM32.5101 29.1C32.5101 29.81 32.2294 30.4912 31.7293 30.9951C31.2291 31.499 30.55 31.7847 29.8401 31.79H25.1401C24.4301 31.7847 23.751 31.499 23.2509 30.9951C22.7507 30.4912 22.4701 29.81 22.4701 29.1V25.1C22.4701 24.39 22.7507 23.7088 23.2509 23.2049C23.751 22.701 24.4301 22.4153 25.1401 22.41H29.8401C30.55 22.4153 31.2291 22.701 31.7293 23.2049C32.2294 23.7088 32.5101 24.39 32.5101 25.1V29.1ZM46.0701 55.66C46.0675 56.3709 45.7846 57.0521 45.2828 57.5557C44.7811 58.0593 44.101 58.3448 43.3901 58.35H38.7001C38.346 58.3513 37.9951 58.2827 37.6676 58.1481C37.3401 58.0135 37.0424 57.8156 36.7915 57.5657C36.5407 57.3158 36.3416 57.0188 36.2058 56.6918C36.07 56.3647 36.0001 56.0141 36.0001 55.66V51.66C36.008 50.9501 36.2963 50.272 36.8021 49.7738C37.3078 49.2755 37.9901 48.9973 38.7001 49H43.3901C44.101 49.0053 44.7811 49.2907 45.2828 49.7943C45.7846 50.2979 46.0675 50.9791 46.0701 51.69V55.66ZM46.0701 42.38C46.0675 43.0909 45.7846 43.7721 45.2828 44.2757C44.7811 44.7794 44.101 45.0648 43.3901 45.07H38.7001C38.346 45.0713 37.9951 45.0027 37.6676 44.8681C37.3401 44.7335 37.0424 44.5356 36.7915 44.2857C36.5407 44.0358 36.3416 43.7388 36.2058 43.4118C36.07 43.0847 36.0001 42.7341 36.0001 42.38V38.38C36.0001 37.6683 36.2821 36.9856 36.7844 36.4814C37.2867 35.9773 37.9684 35.6927 38.6801 35.69H43.3701C44.081 35.6953 44.7611 35.9807 45.2628 36.4843C45.7646 36.9879 46.0475 37.6691 46.0501 38.38L46.0701 42.38ZM46.0701 29.1C46.0675 29.8109 45.7846 30.4921 45.2828 30.9957C44.7811 31.4993 44.101 31.7848 43.3901 31.79H38.7001C38.346 31.7913 37.9951 31.7227 37.6676 31.5881C37.3401 31.4535 37.0424 31.2556 36.7915 31.0057C36.5407 30.7558 36.3416 30.4588 36.2058 30.1318C36.07 29.8047 36.0001 29.4541 36.0001 29.1V25.1C35.9988 24.7451 36.0677 24.3934 36.2029 24.0652C36.3381 23.737 36.537 23.4389 36.788 23.1879C37.0389 22.9369 37.3371 22.7381 37.6653 22.6029C37.9935 22.4676 38.3451 22.3987 38.7001 22.4H43.3901C44.101 22.4053 44.7811 22.6907 45.2828 23.1943C45.7846 23.6979 46.0675 24.3791 46.0701 25.09V29.1ZM59.6201 55.66C59.6201 56.3717 59.3381 57.0544 58.8357 57.5586C58.3334 58.0628 57.6518 58.3474 56.9401 58.35H52.2501C51.5384 58.3474 50.8567 58.0628 50.3544 57.5586C49.8521 57.0544 49.5701 56.3717 49.5701 55.66V51.66C49.578 50.9535 49.8635 50.2785 50.3649 49.7808C50.8664 49.2831 51.5436 49.0026 52.2501 49H56.9401C57.6518 49.0027 58.3334 49.2873 58.8357 49.7914C59.3381 50.2956 59.6201 50.9783 59.6201 51.69V55.66ZM59.6201 42.38C59.6201 43.0917 59.3381 43.7744 58.8357 44.2786C58.3334 44.7828 57.6518 45.0674 56.9401 45.07H52.2501C51.5384 45.0674 50.8567 44.7828 50.3544 44.2786C49.8521 43.7744 49.5701 43.0917 49.5701 42.38V38.38C49.5701 37.6683 49.8521 36.9856 50.3544 36.4814C50.8567 35.9773 51.5384 35.6927 52.2501 35.69H56.9401C57.6518 35.6927 58.3334 35.9773 58.8357 36.4814C59.3381 36.9856 59.6201 37.6683 59.6201 38.38V42.38ZM59.6201 29.1C59.6201 29.8117 59.3381 30.4944 58.8357 30.9986C58.3334 31.5028 57.6518 31.7874 56.9401 31.79H52.2501C51.5384 31.7874 50.8567 31.5028 50.3544 30.9986C49.8521 30.4944 49.5701 29.8117 49.5701 29.1V25.1C49.5701 24.3883 49.8521 23.7056 50.3544 23.2014C50.8567 22.6973 51.5384 22.4127 52.2501 22.41H56.9401C57.6518 22.4127 58.3334 22.6973 58.8357 23.2014C59.3381 23.7056 59.6201 24.3883 59.6201 25.1V29.1Z" fill="url(#paint2_linear_4328_468)"/>
<path d="M57.6201 25.0899V29.0899C57.6214 29.18 57.6048 29.2695 57.5712 29.3532C57.5376 29.4369 57.4877 29.513 57.4245 29.5772C57.3612 29.6414 57.2858 29.6924 57.2026 29.7272C57.1195 29.762 57.0302 29.7799 56.9401 29.7799H52.2501C52.0688 29.7773 51.8959 29.7034 51.7686 29.5743C51.6414 29.4452 51.57 29.2712 51.5701 29.0899V25.0899C51.57 24.9086 51.6414 24.7346 51.7686 24.6055C51.8959 24.4764 52.0688 24.4025 52.2501 24.3999H56.9401C57.0302 24.3999 57.1195 24.4178 57.2026 24.4526C57.2858 24.4874 57.3612 24.5384 57.4245 24.6026C57.4877 24.6668 57.5376 24.7429 57.5712 24.8266C57.6048 24.9103 57.6214 24.9998 57.6201 25.0899Z" fill="black"/>
<path d="M57.6201 25.0899V29.0899C57.6214 29.18 57.6048 29.2695 57.5712 29.3532C57.5376 29.4369 57.4877 29.513 57.4245 29.5772C57.3612 29.6414 57.2858 29.6924 57.2026 29.7272C57.1195 29.762 57.0302 29.7799 56.9401 29.7799H52.2501C52.0688 29.7773 51.8959 29.7034 51.7686 29.5743C51.6414 29.4452 51.57 29.2712 51.5701 29.0899V25.0899C51.57 24.9086 51.6414 24.7346 51.7686 24.6055C51.8959 24.4764 52.0688 24.4025 52.2501 24.3999H56.9401C57.0302 24.3999 57.1195 24.4178 57.2026 24.4526C57.2858 24.4874 57.3612 24.5384 57.4245 24.6026C57.4877 24.6668 57.5376 24.7429 57.5712 24.8266C57.6048 24.9103 57.6214 24.9998 57.6201 25.0899Z" fill="url(#paint3_linear_4328_468)"/>
<path d="M44.0701 25.0902V29.0902C44.0701 29.2715 43.9988 29.4455 43.8715 29.5746C43.7443 29.7037 43.5713 29.7776 43.3901 29.7802H38.7001C38.6091 29.7829 38.5185 29.7673 38.4337 29.7343C38.3489 29.7013 38.2715 29.6517 38.2063 29.5883C38.141 29.5249 38.0891 29.449 38.0537 29.3652C38.0183 29.2813 38 29.1912 38.0001 29.1002V25.1002C37.9987 25.0101 38.0154 24.9206 38.0489 24.8369C38.0825 24.7533 38.1324 24.6771 38.1957 24.6129C38.2589 24.5487 38.3344 24.4977 38.4175 24.4629C38.5007 24.4281 38.5899 24.4102 38.6801 24.4102H43.3701C43.4607 24.4089 43.5507 24.4254 43.6349 24.4589C43.7191 24.4924 43.7959 24.5421 43.8609 24.6052C43.9259 24.6684 43.9779 24.7437 44.0137 24.8269C44.0496 24.9101 44.0688 24.9996 44.0701 25.0902Z" fill="black"/>
<path d="M44.0701 25.0902V29.0902C44.0701 29.2715 43.9988 29.4455 43.8715 29.5746C43.7443 29.7037 43.5713 29.7776 43.3901 29.7802H38.7001C38.6091 29.7829 38.5185 29.7673 38.4337 29.7343C38.3489 29.7013 38.2715 29.6517 38.2063 29.5883C38.141 29.5249 38.0891 29.449 38.0537 29.3652C38.0183 29.2813 38 29.1912 38.0001 29.1002V25.1002C37.9987 25.0101 38.0154 24.9206 38.0489 24.8369C38.0825 24.7533 38.1324 24.6771 38.1957 24.6129C38.2589 24.5487 38.3344 24.4977 38.4175 24.4629C38.5007 24.4281 38.5899 24.4102 38.6801 24.4102H43.3701C43.4607 24.4089 43.5507 24.4254 43.6349 24.4589C43.7191 24.4924 43.7959 24.5421 43.8609 24.6052C43.9259 24.6684 43.9779 24.7437 44.0137 24.8269C44.0496 24.9101 44.0688 24.9996 44.0701 25.0902Z" fill="url(#paint4_linear_4328_468)"/>
<path d="M30.51 25.0899V29.0899C30.5114 29.1792 30.4951 29.2679 30.4621 29.3509C30.4292 29.4339 30.3802 29.5096 30.318 29.5737C30.2558 29.6378 30.1815 29.6889 30.0995 29.7243C30.0175 29.7597 29.9293 29.7786 29.84 29.7799H25.14C25.0507 29.7786 24.9626 29.7597 24.8806 29.7243C24.7986 29.6889 24.7243 29.6378 24.6621 29.5737C24.5999 29.5096 24.5509 29.4339 24.518 29.3509C24.485 29.2679 24.4687 29.1792 24.47 29.0899V25.0899C24.4687 25.0006 24.485 24.9119 24.518 24.8289C24.5509 24.7459 24.5999 24.6702 24.6621 24.6061C24.7243 24.542 24.7986 24.4909 24.8806 24.4555C24.9626 24.4201 25.0507 24.4012 25.14 24.3999H29.84C29.9293 24.4012 30.0175 24.4201 30.0995 24.4555C30.1815 24.4909 30.2558 24.542 30.318 24.6061C30.3802 24.6702 30.4292 24.7459 30.4621 24.8289C30.4951 24.9119 30.5114 25.0006 30.51 25.0899Z" fill="black"/>
<path d="M30.51 25.0899V29.0899C30.5114 29.1792 30.4951 29.2679 30.4621 29.3509C30.4292 29.4339 30.3802 29.5096 30.318 29.5737C30.2558 29.6378 30.1815 29.6889 30.0995 29.7243C30.0175 29.7597 29.9293 29.7786 29.84 29.7799H25.14C25.0507 29.7786 24.9626 29.7597 24.8806 29.7243C24.7986 29.6889 24.7243 29.6378 24.6621 29.5737C24.5999 29.5096 24.5509 29.4339 24.518 29.3509C24.485 29.2679 24.4687 29.1792 24.47 29.0899V25.0899C24.4687 25.0006 24.485 24.9119 24.518 24.8289C24.5509 24.7459 24.5999 24.6702 24.6621 24.6061C24.7243 24.542 24.7986 24.4909 24.8806 24.4555C24.9626 24.4201 25.0507 24.4012 25.14 24.3999H29.84C29.9293 24.4012 30.0175 24.4201 30.0995 24.4555C30.1815 24.4909 30.2558 24.542 30.318 24.6061C30.3802 24.6702 30.4292 24.7459 30.4621 24.8289C30.4951 24.9119 30.5114 25.0006 30.51 25.0899Z" fill="url(#paint5_linear_4328_468)"/>
<path d="M30.51 38.3702V42.3702C30.5114 42.4595 30.4951 42.5482 30.4621 42.6312C30.4292 42.7142 30.3802 42.7899 30.318 42.854C30.2558 42.918 30.1815 42.9692 30.0995 43.0046C30.0175 43.04 29.9293 43.0589 29.84 43.0602H25.14C25.0507 43.0589 24.9626 43.04 24.8806 43.0046C24.7986 42.9692 24.7243 42.918 24.6621 42.854C24.5999 42.7899 24.5509 42.7142 24.518 42.6312C24.485 42.5482 24.4687 42.4595 24.47 42.3702V38.3702C24.4687 38.2809 24.485 38.1922 24.518 38.1092C24.5509 38.0262 24.5999 37.9505 24.6621 37.8864C24.7243 37.8223 24.7986 37.7711 24.8806 37.7357C24.9626 37.7004 25.0507 37.6815 25.14 37.6802H29.84C29.9293 37.6815 30.0175 37.7004 30.0995 37.7357C30.1815 37.7711 30.2558 37.8223 30.318 37.8864C30.3802 37.9505 30.4292 38.0262 30.4621 38.1092C30.4951 38.1922 30.5114 38.2809 30.51 38.3702Z" fill="black"/>
<path d="M30.51 38.3702V42.3702C30.5114 42.4595 30.4951 42.5482 30.4621 42.6312C30.4292 42.7142 30.3802 42.7899 30.318 42.854C30.2558 42.918 30.1815 42.9692 30.0995 43.0046C30.0175 43.04 29.9293 43.0589 29.84 43.0602H25.14C25.0507 43.0589 24.9626 43.04 24.8806 43.0046C24.7986 42.9692 24.7243 42.918 24.6621 42.854C24.5999 42.7899 24.5509 42.7142 24.518 42.6312C24.485 42.5482 24.4687 42.4595 24.47 42.3702V38.3702C24.4687 38.2809 24.485 38.1922 24.518 38.1092C24.5509 38.0262 24.5999 37.9505 24.6621 37.8864C24.7243 37.8223 24.7986 37.7711 24.8806 37.7357C24.9626 37.7004 25.0507 37.6815 25.14 37.6802H29.84C29.9293 37.6815 30.0175 37.7004 30.0995 37.7357C30.1815 37.7711 30.2558 37.8223 30.318 37.8864C30.3802 37.9505 30.4292 38.0262 30.4621 38.1092C30.4951 38.1922 30.5114 38.2809 30.51 38.3702Z" fill="url(#paint6_linear_4328_468)"/>
<path d="M44.0701 38.3702V42.3702C44.0701 42.5515 43.9988 42.7255 43.8715 42.8546C43.7443 42.9837 43.5714 43.0575 43.3901 43.0602H38.7001C38.6099 43.0602 38.5207 43.0423 38.4375 43.0075C38.3544 42.9727 38.279 42.9217 38.2157 42.8575C38.1524 42.7933 38.1025 42.7171 38.069 42.6335C38.0354 42.5498 38.0188 42.4603 38.0201 42.3702V38.3702C38.0188 38.28 38.0354 38.1905 38.069 38.1069C38.1025 38.0232 38.1524 37.9471 38.2157 37.8829C38.279 37.8187 38.3544 37.7677 38.4375 37.7329C38.5207 37.6981 38.6099 37.6802 38.7001 37.6802H43.3901C43.5714 37.6828 43.7443 37.7567 43.8715 37.8858C43.9988 38.0149 44.0701 38.1889 44.0701 38.3702Z" fill="black"/>
<path d="M44.0701 38.3702V42.3702C44.0701 42.5515 43.9988 42.7255 43.8715 42.8546C43.7443 42.9837 43.5714 43.0575 43.3901 43.0602H38.7001C38.6099 43.0602 38.5207 43.0423 38.4375 43.0075C38.3544 42.9727 38.279 42.9217 38.2157 42.8575C38.1524 42.7933 38.1025 42.7171 38.069 42.6335C38.0354 42.5498 38.0188 42.4603 38.0201 42.3702V38.3702C38.0188 38.28 38.0354 38.1905 38.069 38.1069C38.1025 38.0232 38.1524 37.9471 38.2157 37.8829C38.279 37.8187 38.3544 37.7677 38.4375 37.7329C38.5207 37.6981 38.6099 37.6802 38.7001 37.6802H43.3901C43.5714 37.6828 43.7443 37.7567 43.8715 37.8858C43.9988 38.0149 44.0701 38.1889 44.0701 38.3702Z" fill="url(#paint7_linear_4328_468)"/>
<path d="M57.6201 38.3702V42.3702C57.6214 42.4603 57.6048 42.5498 57.5712 42.6335C57.5376 42.7171 57.4877 42.7933 57.4245 42.8575C57.3612 42.9217 57.2858 42.9727 57.2026 43.0075C57.1195 43.0423 57.0302 43.0602 56.9401 43.0602H52.2501C52.0688 43.0575 51.8959 42.9837 51.7686 42.8546C51.6414 42.7255 51.57 42.5515 51.5701 42.3702V38.3702C51.57 38.1889 51.6414 38.0149 51.7686 37.8858C51.8959 37.7567 52.0688 37.6828 52.2501 37.6802H56.9401C57.0302 37.6802 57.1195 37.6981 57.2026 37.7329C57.2858 37.7677 57.3612 37.8187 57.4245 37.8829C57.4877 37.9471 57.5376 38.0232 57.5712 38.1069C57.6048 38.1905 57.6214 38.28 57.6201 38.3702Z" fill="black"/>
<path d="M57.6201 38.3702V42.3702C57.6214 42.4603 57.6048 42.5498 57.5712 42.6335C57.5376 42.7171 57.4877 42.7933 57.4245 42.8575C57.3612 42.9217 57.2858 42.9727 57.2026 43.0075C57.1195 43.0423 57.0302 43.0602 56.9401 43.0602H52.2501C52.0688 43.0575 51.8959 42.9837 51.7686 42.8546C51.6414 42.7255 51.57 42.5515 51.5701 42.3702V38.3702C51.57 38.1889 51.6414 38.0149 51.7686 37.8858C51.8959 37.7567 52.0688 37.6828 52.2501 37.6802H56.9401C57.0302 37.6802 57.1195 37.6981 57.2026 37.7329C57.2858 37.7677 57.3612 37.8187 57.4245 37.8829C57.4877 37.9471 57.5376 38.0232 57.5712 38.1069C57.6048 38.1905 57.6214 38.28 57.6201 38.3702Z" fill="url(#paint8_linear_4328_468)"/>
<path d="M57.6201 51.65V55.65C57.6214 55.7401 57.6048 55.8296 57.5712 55.9133C57.5376 55.9969 57.4877 56.0731 57.4245 56.1373C57.3612 56.2015 57.2858 56.2525 57.2026 56.2873C57.1195 56.3221 57.0302 56.34 56.9401 56.34H52.2501C52.0688 56.3373 51.8959 56.2635 51.7686 56.1344C51.6414 56.0052 51.57 55.8312 51.5701 55.65V51.65C51.57 51.4687 51.6414 51.2947 51.7686 51.1656C51.8959 51.0364 52.0688 50.9626 52.2501 50.96H56.9401C57.0302 50.96 57.1195 50.9779 57.2026 51.0127C57.2858 51.0475 57.3612 51.0984 57.4245 51.1627C57.4877 51.2269 57.5376 51.303 57.5712 51.3867C57.6048 51.4703 57.6214 51.5598 57.6201 51.65Z" fill="black"/>
<path d="M57.6201 51.65V55.65C57.6214 55.7401 57.6048 55.8296 57.5712 55.9133C57.5376 55.9969 57.4877 56.0731 57.4245 56.1373C57.3612 56.2015 57.2858 56.2525 57.2026 56.2873C57.1195 56.3221 57.0302 56.34 56.9401 56.34H52.2501C52.0688 56.3373 51.8959 56.2635 51.7686 56.1344C51.6414 56.0052 51.57 55.8312 51.5701 55.65V51.65C51.57 51.4687 51.6414 51.2947 51.7686 51.1656C51.8959 51.0364 52.0688 50.9626 52.2501 50.96H56.9401C57.0302 50.96 57.1195 50.9779 57.2026 51.0127C57.2858 51.0475 57.3612 51.0984 57.4245 51.1627C57.4877 51.2269 57.5376 51.303 57.5712 51.3867C57.6048 51.4703 57.6214 51.5598 57.6201 51.65Z" fill="url(#paint9_linear_4328_468)"/>
<path d="M44.0701 51.65V55.65C44.0701 55.8313 43.9988 56.0053 43.8715 56.1344C43.7443 56.2635 43.5714 56.3374 43.3901 56.34H38.7001C38.6099 56.34 38.5207 56.3221 38.4375 56.2873C38.3544 56.2525 38.279 56.2015 38.2157 56.1373C38.1524 56.0731 38.1025 55.997 38.069 55.9133C38.0354 55.8296 38.0188 55.7401 38.0201 55.65V51.65C38.0278 51.4749 38.1029 51.3096 38.2296 51.1884C38.3563 51.0673 38.5248 50.9998 38.7001 51H43.3901C43.5646 51.0022 43.7318 51.0705 43.858 51.1912C43.9842 51.3118 44.06 51.4757 44.0701 51.65Z" fill="black"/>
<path d="M44.0701 51.65V55.65C44.0701 55.8313 43.9988 56.0053 43.8715 56.1344C43.7443 56.2635 43.5714 56.3374 43.3901 56.34H38.7001C38.6099 56.34 38.5207 56.3221 38.4375 56.2873C38.3544 56.2525 38.279 56.2015 38.2157 56.1373C38.1524 56.0731 38.1025 55.997 38.069 55.9133C38.0354 55.8296 38.0188 55.7401 38.0201 55.65V51.65C38.0278 51.4749 38.1029 51.3096 38.2296 51.1884C38.3563 51.0673 38.5248 50.9998 38.7001 51H43.3901C43.5646 51.0022 43.7318 51.0705 43.858 51.1912C43.9842 51.3118 44.06 51.4757 44.0701 51.65Z" fill="url(#paint10_linear_4328_468)"/>
<path d="M30.51 51.65V55.65C30.5114 55.7393 30.4951 55.8279 30.4621 55.911C30.4292 55.994 30.3802 56.0697 30.318 56.1337C30.2558 56.1978 30.1815 56.249 30.0995 56.2844C30.0175 56.3198 29.9293 56.3387 29.84 56.34H25.14C25.0507 56.3387 24.9626 56.3198 24.8806 56.2844C24.7986 56.249 24.7243 56.1978 24.6621 56.1337C24.5999 56.0697 24.5509 55.994 24.518 55.911C24.485 55.8279 24.4687 55.7393 24.47 55.65V51.65C24.4687 51.5607 24.485 51.472 24.518 51.389C24.5509 51.306 24.5999 51.2303 24.6621 51.1662C24.7243 51.1021 24.7986 51.0509 24.8806 51.0155C24.9626 50.9801 25.0507 50.9613 25.14 50.96H29.84C29.9293 50.9613 30.0175 50.9801 30.0995 51.0155C30.1815 51.0509 30.2558 51.1021 30.318 51.1662C30.3802 51.2303 30.4292 51.306 30.4621 51.389C30.4951 51.472 30.5114 51.5607 30.51 51.65Z" fill="black"/>
<path d="M30.51 51.65V55.65C30.5114 55.7393 30.4951 55.8279 30.4621 55.911C30.4292 55.994 30.3802 56.0697 30.318 56.1337C30.2558 56.1978 30.1815 56.249 30.0995 56.2844C30.0175 56.3198 29.9293 56.3387 29.84 56.34H25.14C25.0507 56.3387 24.9626 56.3198 24.8806 56.2844C24.7986 56.249 24.7243 56.1978 24.6621 56.1337C24.5999 56.0697 24.5509 55.994 24.518 55.911C24.485 55.8279 24.4687 55.7393 24.47 55.65V51.65C24.4687 51.5607 24.485 51.472 24.518 51.389C24.5509 51.306 24.5999 51.2303 24.6621 51.1662C24.7243 51.1021 24.7986 51.0509 24.8806 51.0155C24.9626 50.9801 25.0507 50.9613 25.14 50.96H29.84C29.9293 50.9613 30.0175 50.9801 30.0995 51.0155C30.1815 51.0509 30.2558 51.1021 30.318 51.1662C30.3802 51.2303 30.4292 51.306 30.4621 51.389C30.4951 51.472 30.5114 51.5607 30.51 51.65Z" fill="url(#paint11_linear_4328_468)"/>
<path d="M78.2499 76.8199V78.3099H76.3099C75.5142 78.3099 74.7512 78.626 74.1886 79.1886C73.626 79.7512 73.3099 80.5143 73.3099 81.3099C73.3099 82.1056 73.626 82.8686 74.1886 83.4313C74.7512 83.9939 75.5142 84.3099 76.3099 84.3099H78.2499V85.7899C78.2499 85.8907 78.2099 85.9874 78.1386 86.0586C78.0673 86.1299 77.9707 86.1699 77.8699 86.1699H66.5299C66.4291 86.1699 66.3325 86.1299 66.2612 86.0586C66.1899 85.9874 66.1499 85.8907 66.1499 85.7899V76.8199C66.1499 76.7192 66.1899 76.6225 66.2612 76.5512C66.3325 76.48 66.4291 76.4399 66.5299 76.4399H77.8699C77.9707 76.4399 78.0673 76.48 78.1386 76.5512C78.2099 76.6225 78.2499 76.7192 78.2499 76.8199Z" fill="black"/>
<path d="M78.2499 76.8199V78.3099H76.3099C75.5142 78.3099 74.7512 78.626 74.1886 79.1886C73.626 79.7512 73.3099 80.5143 73.3099 81.3099C73.3099 82.1056 73.626 82.8686 74.1886 83.4313C74.7512 83.9939 75.5142 84.3099 76.3099 84.3099H78.2499V85.7899C78.2499 85.8907 78.2099 85.9874 78.1386 86.0586C78.0673 86.1299 77.9707 86.1699 77.8699 86.1699H66.5299C66.4291 86.1699 66.3325 86.1299 66.2612 86.0586C66.1899 85.9874 66.1499 85.8907 66.1499 85.7899V76.8199C66.1499 76.7192 66.1899 76.6225 66.2612 76.5512C66.3325 76.48 66.4291 76.4399 66.5299 76.4399H77.8699C77.9707 76.4399 78.0673 76.48 78.1386 76.5512C78.2099 76.6225 78.2499 76.7192 78.2499 76.8199Z" fill="url(#paint12_linear_4328_468)"/>
<path d="M72.2 68.0801C69.5856 68.0722 67.0276 68.8402 64.85 70.2869C62.6724 71.7337 60.973 73.794 59.967 76.2071C58.9611 78.6202 58.6937 81.2776 59.1989 83.8427C59.7041 86.4078 60.9591 88.7653 62.8049 90.6168C64.6508 92.4682 67.0045 93.7303 69.5681 94.2433C72.1316 94.7563 74.7898 94.497 77.2059 93.4984C79.6221 92.4997 81.6876 90.8066 83.1409 88.6334C84.5942 86.4601 85.3699 83.9045 85.37 81.2901C85.37 77.7935 83.9837 74.4396 81.515 71.9634C79.0463 69.4872 75.6965 68.0907 72.2 68.0801ZM80.2 85.7601C80.1973 86.3905 79.9457 86.9944 79.5 87.4401C79.0542 87.8859 78.4504 88.1375 77.82 88.1401H66.53C65.8996 88.1375 65.2957 87.8859 64.8499 87.4401C64.4042 86.9944 64.1526 86.3905 64.15 85.7601V76.8201C64.1526 76.1897 64.4042 75.5859 64.8499 75.1401C65.2957 74.6944 65.8996 74.4428 66.53 74.4401H77.87C78.5004 74.4428 79.1042 74.6944 79.55 75.1401C79.9957 75.5859 80.2473 76.1897 80.25 76.8201L80.2 85.7601Z" fill="black"/>
<path d="M72.2 68.0801C69.5856 68.0722 67.0276 68.8402 64.85 70.2869C62.6724 71.7337 60.973 73.794 59.967 76.2071C58.9611 78.6202 58.6937 81.2776 59.1989 83.8427C59.7041 86.4078 60.9591 88.7653 62.8049 90.6168C64.6508 92.4682 67.0045 93.7303 69.5681 94.2433C72.1316 94.7563 74.7898 94.497 77.2059 93.4984C79.6221 92.4997 81.6876 90.8066 83.1409 88.6334C84.5942 86.4601 85.3699 83.9045 85.37 81.2901C85.37 77.7935 83.9837 74.4396 81.515 71.9634C79.0463 69.4872 75.6965 68.0907 72.2 68.0801ZM80.2 85.7601C80.1973 86.3905 79.9457 86.9944 79.5 87.4401C79.0542 87.8859 78.4504 88.1375 77.82 88.1401H66.53C65.8996 88.1375 65.2957 87.8859 64.8499 87.4401C64.4042 86.9944 64.1526 86.3905 64.15 85.7601V76.8201C64.1526 76.1897 64.4042 75.5859 64.8499 75.1401C65.2957 74.6944 65.8996 74.4428 66.53 74.4401H77.87C78.5004 74.4428 79.1042 74.6944 79.55 75.1401C79.9957 75.5859 80.2473 76.1897 80.25 76.8201L80.2 85.7601Z" fill="url(#paint13_linear_4328_468)"/>
<path d="M78.2501 80.3101V82.3101H76.3101C76.0448 82.3101 75.7905 82.2047 75.603 82.0172C75.4154 81.8296 75.3101 81.5753 75.3101 81.3101C75.3101 81.0448 75.4154 80.7905 75.603 80.603C75.7905 80.4154 76.0448 80.3101 76.3101 80.3101H78.2501Z" fill="black"/>
<path d="M78.2501 80.3101V82.3101H76.3101C76.0448 82.3101 75.7905 82.2047 75.603 82.0172C75.4154 81.8296 75.3101 81.5753 75.3101 81.3101C75.3101 81.0448 75.4154 80.7905 75.603 80.603C75.7905 80.4154 76.0448 80.3101 76.3101 80.3101H78.2501Z" fill="url(#paint14_linear_4328_468)"/>
<defs>
<linearGradient id="paint0_linear_4328_468" x1="41.0402" y1="0.5" x2="41.0402" y2="14.1499" gradientUnits="userSpaceOnUse">
<stop stop-color="#1071FF"/>
<stop offset="1" stop-color="#010C19"/>
</linearGradient>
<linearGradient id="paint1_linear_4328_468" x1="41.0402" y1="64.73" x2="41.0402" y2="81.19" gradientUnits="userSpaceOnUse">
<stop stop-color="#1071FF"/>
<stop offset="1" stop-color="#010C19"/>
</linearGradient>
<linearGradient id="paint2_linear_4328_468" x1="41.045" y1="10.5161" x2="41.045" y2="81.14" gradientUnits="userSpaceOnUse">
<stop stop-color="#1071FF"/>
<stop offset="1" stop-color="#010C19"/>
</linearGradient>
<linearGradient id="paint3_linear_4328_468" x1="54.5951" y1="24.3999" x2="54.5951" y2="29.7799" gradientUnits="userSpaceOnUse">
<stop stop-color="#1071FF"/>
<stop offset="1" stop-color="#010C19"/>
</linearGradient>
<linearGradient id="paint4_linear_4328_468" x1="41.035" y1="24.4102" x2="41.035" y2="29.7805" gradientUnits="userSpaceOnUse">
<stop stop-color="#1071FF"/>
<stop offset="1" stop-color="#010C19"/>
</linearGradient>
<linearGradient id="paint5_linear_4328_468" x1="27.49" y1="24.3999" x2="27.49" y2="29.7799" gradientUnits="userSpaceOnUse">
<stop stop-color="#1071FF"/>
<stop offset="1" stop-color="#010C19"/>
</linearGradient>
<linearGradient id="paint6_linear_4328_468" x1="27.49" y1="37.6802" x2="27.49" y2="43.0602" gradientUnits="userSpaceOnUse">
<stop stop-color="#1071FF"/>
<stop offset="1" stop-color="#010C19"/>
</linearGradient>
<linearGradient id="paint7_linear_4328_468" x1="41.0451" y1="37.6802" x2="41.0451" y2="43.0602" gradientUnits="userSpaceOnUse">
<stop stop-color="#1071FF"/>
<stop offset="1" stop-color="#010C19"/>
</linearGradient>
<linearGradient id="paint8_linear_4328_468" x1="54.5951" y1="37.6802" x2="54.5951" y2="43.0602" gradientUnits="userSpaceOnUse">
<stop stop-color="#1071FF"/>
<stop offset="1" stop-color="#010C19"/>
</linearGradient>
<linearGradient id="paint9_linear_4328_468" x1="54.5951" y1="50.96" x2="54.5951" y2="56.34" gradientUnits="userSpaceOnUse">
<stop stop-color="#1071FF"/>
<stop offset="1" stop-color="#010C19"/>
</linearGradient>
<linearGradient id="paint10_linear_4328_468" x1="41.0451" y1="51" x2="41.0451" y2="56.34" gradientUnits="userSpaceOnUse">
<stop stop-color="#1071FF"/>
<stop offset="1" stop-color="#010C19"/>
</linearGradient>
<linearGradient id="paint11_linear_4328_468" x1="27.49" y1="50.96" x2="27.49" y2="56.34" gradientUnits="userSpaceOnUse">
<stop stop-color="#1071FF"/>
<stop offset="1" stop-color="#010C19"/>
</linearGradient>
<linearGradient id="paint12_linear_4328_468" x1="72.1999" y1="76.4399" x2="72.1999" y2="86.1699" gradientUnits="userSpaceOnUse">
<stop stop-color="#1071FF"/>
<stop offset="1" stop-color="#010C19"/>
</linearGradient>
<linearGradient id="paint13_linear_4328_468" x1="72.16" y1="68.0801" x2="72.16" y2="94.5001" gradientUnits="userSpaceOnUse">
<stop stop-color="#1071FF"/>
<stop offset="1" stop-color="#010C19"/>
</linearGradient>
<linearGradient id="paint14_linear_4328_468" x1="76.7801" y1="80.3101" x2="76.7801" y2="82.3101" gradientUnits="userSpaceOnUse">
<stop stop-color="#1071FF"/>
<stop offset="1" stop-color="#010C19"/>
</linearGradient>
</defs>
</svg>
