<svg width="85" height="85" viewBox="0 0 85 85" fill="none" xmlns="http://www.w3.org/2000/svg">
<path fill-rule="evenodd" clip-rule="evenodd" d="M39.5 68.7597V80.4C39.5 82.9415 41.5585 85 44.1 85H62.5C65.0415 85 67.1 82.9415 67.1 80.4V68.7597C66.318 68.5826 65.5636 68.2353 64.8897 67.7109L53.3 58.6972L41.7103 67.7109C41.0364 68.2353 40.282 68.5826 39.5 68.7597ZM38.2787 84.1053C37.5956 83.0358 37.2 81.7639 37.2 80.4V68.8011C35.8936 68.5573 34.6677 67.8512 33.7891 66.7219C31.8755 64.2609 32.3194 60.712 34.7781 58.7984L49.8339 47.0891C51.8717 45.5044 54.7283 45.5044 56.7661 47.0891L67.4427 55.3944L71.7943 51.0428C73.2065 49.6306 74 47.7147 74 45.7183C74 41.0861 74 30.1036 74 23.5302C74 21.5338 73.2065 19.6179 71.7943 18.2057C70.3821 16.7935 68.4662 16 66.4698 16C59.8964 16 48.9139 16 44.2817 16C42.2853 16 40.3694 16.7935 38.9572 18.2057C33.5338 23.6291 15.143 42.0199 7.2057 49.9572C5.7935 51.3694 5 53.2853 5 55.2817C5 57.2781 5.7935 59.194 7.2057 60.6062L29.3938 82.7943C30.806 84.2065 32.7219 85 34.7183 85C35.9718 85 37.1931 84.6872 38.2787 84.1053ZM53.3 68.9C55.8392 68.9 57.9 70.9608 57.9 73.5V78.1C57.9 79.3696 56.8696 80.4 55.6 80.4C54.1947 80.4 52.4053 80.4 51 80.4C49.7304 80.4 48.7 79.3696 48.7 78.1C48.7 75.9265 48.7 75.0732 48.7 73.5C48.7 70.9608 50.7608 68.9 53.3 68.9ZM40.2981 65.8962L53.3 55.7831L66.3019 65.8962C67.7578 67.0301 69.8623 66.7656 70.9962 65.3097C72.1301 63.8515 71.8656 61.747 70.4097 60.6131L55.3539 48.9038C54.1464 47.9654 52.4536 47.9654 51.2461 48.9038L36.1903 60.6131C34.7344 61.747 34.4699 63.8515 35.6038 65.3097C36.7377 66.7656 38.8422 67.0301 40.2981 65.8962ZM60.2 25.2C62.7392 25.2 64.8 27.2608 64.8 29.8C64.8 32.3392 62.7392 34.4 60.2 34.4C57.6608 34.4 55.6 32.3392 55.6 29.8C55.6 27.2608 57.6608 25.2 60.2 25.2Z" fill="black"/>
<path fill-rule="evenodd" clip-rule="evenodd" d="M39.5 68.7597V80.4C39.5 82.9415 41.5585 85 44.1 85H62.5C65.0415 85 67.1 82.9415 67.1 80.4V68.7597C66.318 68.5826 65.5636 68.2353 64.8897 67.7109L53.3 58.6972L41.7103 67.7109C41.0364 68.2353 40.282 68.5826 39.5 68.7597ZM38.2787 84.1053C37.5956 83.0358 37.2 81.7639 37.2 80.4V68.8011C35.8936 68.5573 34.6677 67.8512 33.7891 66.7219C31.8755 64.2609 32.3194 60.712 34.7781 58.7984L49.8339 47.0891C51.8717 45.5044 54.7283 45.5044 56.7661 47.0891L67.4427 55.3944L71.7943 51.0428C73.2065 49.6306 74 47.7147 74 45.7183C74 41.0861 74 30.1036 74 23.5302C74 21.5338 73.2065 19.6179 71.7943 18.2057C70.3821 16.7935 68.4662 16 66.4698 16C59.8964 16 48.9139 16 44.2817 16C42.2853 16 40.3694 16.7935 38.9572 18.2057C33.5338 23.6291 15.143 42.0199 7.2057 49.9572C5.7935 51.3694 5 53.2853 5 55.2817C5 57.2781 5.7935 59.194 7.2057 60.6062L29.3938 82.7943C30.806 84.2065 32.7219 85 34.7183 85C35.9718 85 37.1931 84.6872 38.2787 84.1053ZM53.3 68.9C55.8392 68.9 57.9 70.9608 57.9 73.5V78.1C57.9 79.3696 56.8696 80.4 55.6 80.4C54.1947 80.4 52.4053 80.4 51 80.4C49.7304 80.4 48.7 79.3696 48.7 78.1C48.7 75.9265 48.7 75.0732 48.7 73.5C48.7 70.9608 50.7608 68.9 53.3 68.9ZM40.2981 65.8962L53.3 55.7831L66.3019 65.8962C67.7578 67.0301 69.8623 66.7656 70.9962 65.3097C72.1301 63.8515 71.8656 61.747 70.4097 60.6131L55.3539 48.9038C54.1464 47.9654 52.4536 47.9654 51.2461 48.9038L36.1903 60.6131C34.7344 61.747 34.4699 63.8515 35.6038 65.3097C36.7377 66.7656 38.8422 67.0301 40.2981 65.8962ZM60.2 25.2C62.7392 25.2 64.8 27.2608 64.8 29.8C64.8 32.3392 62.7392 34.4 60.2 34.4C57.6608 34.4 55.6 32.3392 55.6 29.8C55.6 27.2608 57.6608 25.2 60.2 25.2Z" fill="url(#paint0_linear_4328_452)"/>
<defs>
<linearGradient id="paint0_linear_4328_452" x1="39.5" y1="16" x2="39.5" y2="85" gradientUnits="userSpaceOnUse">
<stop stop-color="#1071FF"/>
<stop offset="1" stop-color="#010C19"/>
</linearGradient>
</defs>
</svg>
