<svg width="81" height="81" viewBox="0 0 81 81" fill="none" xmlns="http://www.w3.org/2000/svg">
<g clip-path="url(#clip0_4328_441)">
<path fill-rule="evenodd" clip-rule="evenodd" d="M76.9728 66.838H4.09435C1.86552 66.838 0.0268555 64.9993 0.0268555 62.7705V54.4382H81.0403V62.7705C81.0403 64.9993 79.2016 66.838 76.9728 66.838ZM45.2894 60.6717H35.7777C35.123 60.6717 34.5983 60.147 34.5983 59.4923C34.5983 58.833 35.123 58.3083 35.7777 58.3083H45.2894C45.9442 58.3083 46.4689 58.833 46.4689 59.4923C46.4689 60.147 45.8814 60.6717 45.2894 60.6717ZM38.0065 37.8453H13.1487C12.4894 37.8453 11.9647 37.3206 11.9647 36.6614C11.9647 36.0067 12.4894 35.482 13.1487 35.482H38.0065C38.6658 35.482 39.1905 36.0067 39.1905 36.6614C39.1905 37.3206 38.6658 37.8453 38.0065 37.8453ZM30.2034 29.7776H5.34105C4.68631 29.7776 4.16161 29.2529 4.16161 28.5937C4.16161 27.939 4.68631 27.4143 5.34105 27.4143H30.2034C30.8582 27.4143 31.3828 27.939 31.3828 28.5937C31.3828 29.2529 30.8582 29.7776 30.2034 29.7776ZM38.0065 22.1001H13.1487C12.4894 22.1001 11.9647 21.5754 11.9647 20.9206C11.9647 20.2659 12.4894 19.7412 13.1487 19.7412H38.0065C38.6658 19.7412 39.1905 20.2659 39.1905 20.9206C39.1905 21.5754 38.6658 22.1001 38.0065 22.1001ZM49.7785 39.2669L44.1728 14.4898C44.11 14.2297 43.9755 13.705 43.5853 13.705H35.6477C34.9884 13.705 34.4637 13.1803 34.4637 12.5255C34.4637 11.8663 34.9884 11.3416 35.6477 11.3416H43.6481C45.0249 11.3416 46.1415 12.3282 46.4689 13.9023L46.8276 15.4764H74.4794C75.2642 15.4764 76.1208 15.9338 76.5782 16.593C76.9055 17.1177 77.0356 17.7052 76.7755 18.2972L72.551 28.4188C72.5197 28.5982 72.4479 28.7776 72.3403 28.9345L71.0039 32.1365C70.9276 32.3338 70.7976 32.6612 70.5868 32.9886C70.524 33.1096 70.4478 33.2173 70.3446 33.3159C69.9859 33.742 69.4612 34.1052 68.7078 34.1052H64.7703H59.4562H54.2765H51.0521L52.0656 38.5673H52.1777H69.9545C72.3806 38.5673 74.4121 40.5989 74.4121 43.0923C74.4121 45.5857 72.4434 47.5544 69.9545 47.5544C67.4611 47.5544 65.4251 45.5857 65.4251 43.0923C65.4251 42.3075 65.6269 41.572 65.9812 40.9262H56.151C56.5008 41.572 56.7026 42.3075 56.7026 43.0923C56.6354 45.5857 54.6711 47.5544 52.1777 47.5544C49.7516 47.5544 47.7156 45.5857 47.7156 43.0923C47.7156 41.4868 48.5318 40.0742 49.7785 39.2669ZM48.0968 21.0686L48.9264 24.7325L54.864 31.8091H57.0255L48.0968 21.0686ZM50.052 29.6924L50.5319 31.8091H51.8279L50.052 29.6924ZM60.1019 31.8091H62.3307L50.6036 17.7725H48.3838L60.1019 31.8091ZM65.3489 31.8091H67.5597L55.8595 17.7725H53.6352L65.3489 31.8091ZM69.3177 30.2889L70.0711 28.4861L61.1603 17.7725H58.8911L69.3177 30.2889ZM71.0981 26.0241L71.8245 24.284L66.3579 17.7725H64.1963L71.0981 26.0241ZM72.8336 21.8669L74.5467 17.7725H69.3939L72.8336 21.8669ZM0.0268555 52.0793V8.65538C0.0268555 6.42207 1.86552 4.58789 4.09435 4.58789H76.9728C79.0043 4.58789 80.7129 6.0947 80.973 8.13069V8.26074V9.18007C81.0268 23.4275 81.0358 37.8812 81.0403 52.0793H0.0268555Z" fill="black"/>
<path fill-rule="evenodd" clip-rule="evenodd" d="M76.9728 66.838H4.09435C1.86552 66.838 0.0268555 64.9993 0.0268555 62.7705V54.4382H81.0403V62.7705C81.0403 64.9993 79.2016 66.838 76.9728 66.838ZM45.2894 60.6717H35.7777C35.123 60.6717 34.5983 60.147 34.5983 59.4923C34.5983 58.833 35.123 58.3083 35.7777 58.3083H45.2894C45.9442 58.3083 46.4689 58.833 46.4689 59.4923C46.4689 60.147 45.8814 60.6717 45.2894 60.6717ZM38.0065 37.8453H13.1487C12.4894 37.8453 11.9647 37.3206 11.9647 36.6614C11.9647 36.0067 12.4894 35.482 13.1487 35.482H38.0065C38.6658 35.482 39.1905 36.0067 39.1905 36.6614C39.1905 37.3206 38.6658 37.8453 38.0065 37.8453ZM30.2034 29.7776H5.34105C4.68631 29.7776 4.16161 29.2529 4.16161 28.5937C4.16161 27.939 4.68631 27.4143 5.34105 27.4143H30.2034C30.8582 27.4143 31.3828 27.939 31.3828 28.5937C31.3828 29.2529 30.8582 29.7776 30.2034 29.7776ZM38.0065 22.1001H13.1487C12.4894 22.1001 11.9647 21.5754 11.9647 20.9206C11.9647 20.2659 12.4894 19.7412 13.1487 19.7412H38.0065C38.6658 19.7412 39.1905 20.2659 39.1905 20.9206C39.1905 21.5754 38.6658 22.1001 38.0065 22.1001ZM49.7785 39.2669L44.1728 14.4898C44.11 14.2297 43.9755 13.705 43.5853 13.705H35.6477C34.9884 13.705 34.4637 13.1803 34.4637 12.5255C34.4637 11.8663 34.9884 11.3416 35.6477 11.3416H43.6481C45.0249 11.3416 46.1415 12.3282 46.4689 13.9023L46.8276 15.4764H74.4794C75.2642 15.4764 76.1208 15.9338 76.5782 16.593C76.9055 17.1177 77.0356 17.7052 76.7755 18.2972L72.551 28.4188C72.5197 28.5982 72.4479 28.7776 72.3403 28.9345L71.0039 32.1365C70.9276 32.3338 70.7976 32.6612 70.5868 32.9886C70.524 33.1096 70.4478 33.2173 70.3446 33.3159C69.9859 33.742 69.4612 34.1052 68.7078 34.1052H64.7703H59.4562H54.2765H51.0521L52.0656 38.5673H52.1777H69.9545C72.3806 38.5673 74.4121 40.5989 74.4121 43.0923C74.4121 45.5857 72.4434 47.5544 69.9545 47.5544C67.4611 47.5544 65.4251 45.5857 65.4251 43.0923C65.4251 42.3075 65.6269 41.572 65.9812 40.9262H56.151C56.5008 41.572 56.7026 42.3075 56.7026 43.0923C56.6354 45.5857 54.6711 47.5544 52.1777 47.5544C49.7516 47.5544 47.7156 45.5857 47.7156 43.0923C47.7156 41.4868 48.5318 40.0742 49.7785 39.2669ZM48.0968 21.0686L48.9264 24.7325L54.864 31.8091H57.0255L48.0968 21.0686ZM50.052 29.6924L50.5319 31.8091H51.8279L50.052 29.6924ZM60.1019 31.8091H62.3307L50.6036 17.7725H48.3838L60.1019 31.8091ZM65.3489 31.8091H67.5597L55.8595 17.7725H53.6352L65.3489 31.8091ZM69.3177 30.2889L70.0711 28.4861L61.1603 17.7725H58.8911L69.3177 30.2889ZM71.0981 26.0241L71.8245 24.284L66.3579 17.7725H64.1963L71.0981 26.0241ZM72.8336 21.8669L74.5467 17.7725H69.3939L72.8336 21.8669ZM0.0268555 52.0793V8.65538C0.0268555 6.42207 1.86552 4.58789 4.09435 4.58789H76.9728C79.0043 4.58789 80.7129 6.0947 80.973 8.13069V8.26074V9.18007C81.0268 23.4275 81.0358 37.8812 81.0403 52.0793H0.0268555Z" fill="url(#paint0_linear_4328_441)"/>
<path fill-rule="evenodd" clip-rule="evenodd" d="M29.6787 76.4127C29.4814 76.4127 29.2841 76.3499 29.0868 76.2826C28.5621 75.9552 28.3648 75.2332 28.6921 74.7085L34.2036 65.134C34.531 64.6093 35.253 64.412 35.7777 64.7394C36.3024 65.0667 36.4997 65.7888 36.1724 66.3135L30.6609 75.888C30.4635 76.2198 30.0689 76.4127 29.6787 76.4127Z" fill="black"/>
<path fill-rule="evenodd" clip-rule="evenodd" d="M29.6787 76.4127C29.4814 76.4127 29.2841 76.3499 29.0868 76.2826C28.5621 75.9552 28.3648 75.2332 28.6921 74.7085L34.2036 65.134C34.531 64.6093 35.253 64.412 35.7777 64.7394C36.3024 65.0667 36.4997 65.7888 36.1724 66.3135L30.6609 75.888C30.4635 76.2198 30.0689 76.4127 29.6787 76.4127Z" fill="url(#paint1_linear_4328_441)"/>
<path fill-rule="evenodd" clip-rule="evenodd" d="M51.3256 76.4125C50.931 76.4125 50.5363 76.2197 50.339 75.8251L44.8275 66.2461C44.5001 65.7214 44.6975 64.9994 45.2221 64.672C45.7468 64.3446 46.4689 64.5419 46.7962 65.0666L52.3077 74.6412C52.6351 75.1703 52.4378 75.8879 51.9131 76.2197C51.7158 76.3498 51.5185 76.4125 51.3256 76.4125Z" fill="black"/>
<path fill-rule="evenodd" clip-rule="evenodd" d="M51.3256 76.4125C50.931 76.4125 50.5363 76.2197 50.339 75.8251L44.8275 66.2461C44.5001 65.7214 44.6975 64.9994 45.2221 64.672C45.7468 64.3446 46.4689 64.5419 46.7962 65.0666L52.3077 74.6412C52.6351 75.1703 52.4378 75.8879 51.9131 76.2197C51.7158 76.3498 51.5185 76.4125 51.3256 76.4125Z" fill="url(#paint2_linear_4328_441)"/>
<path fill-rule="evenodd" clip-rule="evenodd" d="M57.0972 76.4126H23.9026C23.2478 76.4126 22.7231 75.8879 22.7231 75.2331C22.7231 74.5784 23.2478 74.0537 23.9026 74.0537H57.03C57.6847 74.0537 58.2094 74.5784 58.2094 75.2331C58.2094 75.8879 57.6847 76.4126 57.0972 76.4126Z" fill="black"/>
<path fill-rule="evenodd" clip-rule="evenodd" d="M57.0972 76.4126H23.9026C23.2478 76.4126 22.7231 75.8879 22.7231 75.2331C22.7231 74.5784 23.2478 74.0537 23.9026 74.0537H57.03C57.6847 74.0537 58.2094 74.5784 58.2094 75.2331C58.2094 75.8879 57.6847 76.4126 57.0972 76.4126Z" fill="url(#paint3_linear_4328_441)"/>
<path fill-rule="evenodd" clip-rule="evenodd" d="M52.1778 45.3211C53.4245 45.3211 54.4066 44.339 54.4066 43.1596C54.3393 41.9129 53.3572 40.9263 52.1778 40.9263C50.9938 40.9263 50.0117 41.9129 50.0117 43.1596C50.0117 44.339 50.9311 45.3211 52.1778 45.3211Z" fill="black"/>
<path fill-rule="evenodd" clip-rule="evenodd" d="M52.1778 45.3211C53.4245 45.3211 54.4066 44.339 54.4066 43.1596C54.3393 41.9129 53.3572 40.9263 52.1778 40.9263C50.9938 40.9263 50.0117 41.9129 50.0117 43.1596C50.0117 44.339 50.9311 45.3211 52.1778 45.3211Z" fill="url(#paint4_linear_4328_441)"/>
<path fill-rule="evenodd" clip-rule="evenodd" d="M67.7212 43.1596C67.7212 44.339 68.7078 45.3211 69.9545 45.3211C71.1339 45.3211 72.1161 44.4018 72.1161 43.1596C72.1161 41.9129 71.1339 40.9263 69.9545 40.9263C68.7078 40.9263 67.7212 41.9129 67.7212 43.1596Z" fill="black"/>
<path fill-rule="evenodd" clip-rule="evenodd" d="M67.7212 43.1596C67.7212 44.339 68.7078 45.3211 69.9545 45.3211C71.1339 45.3211 72.1161 44.4018 72.1161 43.1596C72.1161 41.9129 71.1339 40.9263 69.9545 40.9263C68.7078 40.9263 67.7212 41.9129 67.7212 43.1596Z" fill="url(#paint5_linear_4328_441)"/>
</g>
<defs>
<linearGradient id="paint0_linear_4328_441" x1="40.5336" y1="4.58789" x2="40.5336" y2="66.838" gradientUnits="userSpaceOnUse">
<stop stop-color="#1071FF"/>
<stop offset="1" stop-color="#010C19"/>
</linearGradient>
<linearGradient id="paint1_linear_4328_441" x1="32.4322" y1="64.5796" x2="32.4322" y2="76.4127" gradientUnits="userSpaceOnUse">
<stop stop-color="#1071FF"/>
<stop offset="1" stop-color="#010C19"/>
</linearGradient>
<linearGradient id="paint2_linear_4328_441" x1="48.5676" y1="64.5122" x2="48.5676" y2="76.4125" gradientUnits="userSpaceOnUse">
<stop stop-color="#1071FF"/>
<stop offset="1" stop-color="#010C19"/>
</linearGradient>
<linearGradient id="paint3_linear_4328_441" x1="40.4663" y1="74.0537" x2="40.4663" y2="76.4126" gradientUnits="userSpaceOnUse">
<stop stop-color="#1071FF"/>
<stop offset="1" stop-color="#010C19"/>
</linearGradient>
<linearGradient id="paint4_linear_4328_441" x1="52.2091" y1="40.9263" x2="52.2091" y2="45.3211" gradientUnits="userSpaceOnUse">
<stop stop-color="#1071FF"/>
<stop offset="1" stop-color="#010C19"/>
</linearGradient>
<linearGradient id="paint5_linear_4328_441" x1="69.9186" y1="40.9263" x2="69.9186" y2="45.3211" gradientUnits="userSpaceOnUse">
<stop stop-color="#1071FF"/>
<stop offset="1" stop-color="#010C19"/>
</linearGradient>
<clipPath id="clip0_4328_441">
<rect width="81" height="81" fill="white"/>
</clipPath>
</defs>
</svg>
