<svg width="75" height="75" viewBox="0 0 75 75" fill="none" xmlns="http://www.w3.org/2000/svg">
<path d="M22.4707 70.3271C26.2326 70.3271 29.2822 67.2775 29.2822 63.5156C29.2822 59.7537 26.2326 56.7041 22.4707 56.7041C18.7088 56.7041 15.6592 59.7537 15.6592 63.5156C15.6592 67.2775 18.7088 70.3271 22.4707 70.3271Z" fill="black"/>
<path d="M22.4707 70.3271C26.2326 70.3271 29.2822 67.2775 29.2822 63.5156C29.2822 59.7537 26.2326 56.7041 22.4707 56.7041C18.7088 56.7041 15.6592 59.7537 15.6592 63.5156C15.6592 67.2775 18.7088 70.3271 22.4707 70.3271Z" fill="url(#paint0_linear_4328_457)"/>
<path d="M52.5293 70.3271C56.2912 70.3271 59.3408 67.2775 59.3408 63.5156C59.3408 59.7537 56.2912 56.7041 52.5293 56.7041C48.7674 56.7041 45.7178 59.7537 45.7178 63.5156C45.7178 67.2775 48.7674 70.3271 52.5293 70.3271Z" fill="black"/>
<path d="M52.5293 70.3271C56.2912 70.3271 59.3408 67.2775 59.3408 63.5156C59.3408 59.7537 56.2912 56.7041 52.5293 56.7041C48.7674 56.7041 45.7178 59.7537 45.7178 63.5156C45.7178 67.2775 48.7674 70.3271 52.5293 70.3271Z" fill="url(#paint1_linear_4328_457)"/>
<path d="M1.61133 57.5244C1.61133 59.1797 2.94434 60.5127 4.59961 60.5127H10.0635C11.4111 54.9023 16.4648 50.7275 22.4707 50.7275C28.4912 50.7275 33.5303 54.9023 34.8779 60.5127H40.1074C41.4551 54.9023 46.5088 50.7275 52.5146 50.7275C58.5352 50.7275 63.5742 54.9023 64.9219 60.5127H70.3857C72.041 60.5127 73.374 59.1797 73.374 57.5244V37.2217H1.61133V57.5244Z" fill="black"/>
<path d="M1.61133 57.5244C1.61133 59.1797 2.94434 60.5127 4.59961 60.5127H10.0635C11.4111 54.9023 16.4648 50.7275 22.4707 50.7275C28.4912 50.7275 33.5303 54.9023 34.8779 60.5127H40.1074C41.4551 54.9023 46.5088 50.7275 52.5146 50.7275C58.5352 50.7275 63.5742 54.9023 64.9219 60.5127H70.3857C72.041 60.5127 73.374 59.1797 73.374 57.5244V37.2217H1.61133V57.5244Z" fill="url(#paint2_linear_4328_457)"/>
<path d="M30.0293 4.6875H21.0498C20.0098 4.6875 19.0576 5.22949 18.501 6.1084L2.92969 31.2305H30.0293V4.6875Z" fill="black"/>
<path d="M30.0293 4.6875H21.0498C20.0098 4.6875 19.0576 5.22949 18.501 6.1084L2.92969 31.2305H30.0293V4.6875Z" fill="url(#paint3_linear_4328_457)"/>
<path d="M70.4004 4.6875H36.0059V31.2305H73.3887V7.69043C73.3887 6.03516 72.0557 4.6875 70.4004 4.6875Z" fill="black"/>
<path d="M70.4004 4.6875H36.0059V31.2305H73.3887V7.69043C73.3887 6.03516 72.0557 4.6875 70.4004 4.6875Z" fill="url(#paint4_linear_4328_457)"/>
<defs>
<linearGradient id="paint0_linear_4328_457" x1="22.4707" y1="56.7041" x2="22.4707" y2="70.3271" gradientUnits="userSpaceOnUse">
<stop stop-color="#1071FF"/>
<stop offset="1" stop-color="#010C19"/>
</linearGradient>
<linearGradient id="paint1_linear_4328_457" x1="52.5293" y1="56.7041" x2="52.5293" y2="70.3271" gradientUnits="userSpaceOnUse">
<stop stop-color="#1071FF"/>
<stop offset="1" stop-color="#010C19"/>
</linearGradient>
<linearGradient id="paint2_linear_4328_457" x1="37.4927" y1="37.2217" x2="37.4927" y2="60.5127" gradientUnits="userSpaceOnUse">
<stop stop-color="#1071FF"/>
<stop offset="1" stop-color="#010C19"/>
</linearGradient>
<linearGradient id="paint3_linear_4328_457" x1="16.4795" y1="4.6875" x2="16.4795" y2="31.2305" gradientUnits="userSpaceOnUse">
<stop stop-color="#1071FF"/>
<stop offset="1" stop-color="#010C19"/>
</linearGradient>
<linearGradient id="paint4_linear_4328_457" x1="54.6973" y1="4.6875" x2="54.6973" y2="31.2305" gradientUnits="userSpaceOnUse">
<stop stop-color="#1071FF"/>
<stop offset="1" stop-color="#010C19"/>
</linearGradient>
</defs>
</svg>
